<?xml version="1.0" standalone="no"?>
<!DOCTYPE svg PUBLIC "-//W3C//DTD SVG 20010904//EN"
 "http://www.w3.org/TR/2001/REC-SVG-20010904/DTD/svg10.dtd">
<svg version="1.0" xmlns="http://www.w3.org/2000/svg"
 width="541.000000pt" height="541.000000pt" viewBox="0 0 541.000000 541.000000"
 preserveAspectRatio="xMidYMid meet">
<metadata>
Created by potrace 1.11, written by Peter Selinger 2001-2013
</metadata>
<g transform="translate(0.000000,541.000000) scale(0.100000,-0.100000)"
fill="#000000" stroke="none">
<path d="M3909 4322 c-64 -33 -99 -80 -99 -133 l0 -38 -592 -3 c-582 -4 -594
-4 -667 -26 -41 -13 -98 -34 -128 -48 -70 -33 -158 -115 -189 -175 l-24 -48 0
-466 0 -465 -320 0 -320 0 0 39 c0 53 -34 99 -99 133 l-53 28 -482 0 c-537 0
-543 -1 -610 -66 -20 -19 -38 -48 -41 -67 -4 -17 -5 -154 -3 -304 l3 -272 30
-31 c17 -18 48 -42 70 -53 39 -22 50 -22 515 -25 319 -2 489 1 519 8 88 22
151 85 151 153 l0 37 320 0 320 0 0 -463 0 -463 26 -52 c49 -99 166 -179 329
-224 78 -21 98 -22 663 -26 l582 -3 0 -37 c0 -67 63 -130 151 -152 30 -7 200
-10 519 -8 465 3 476 3 515 25 22 11 54 35 70 53 l30 31 3 272 c2 150 1 287
-3 304 -3 19 -21 48 -41 67 -67 65 -73 66 -610 66 l-482 0 -53 -28 c-65 -34
-99 -80 -99 -133 l0 -39 -480 0 -480 0 0 405 0 405 480 0 480 0 0 -37 c0 -68
63 -131 151 -153 30 -7 200 -10 519 -8 465 3 476 3 515 25 22 11 54 35 70 53
l30 31 3 272 c2 150 1 287 -3 304 -8 44 -66 98 -129 120 -46 16 -95 18 -522
18 l-470 0 -59 -30 c-70 -36 -105 -81 -105 -136 l0 -39 -480 0 -480 0 0 405 0
405 480 0 480 0 0 -37 c0 -68 63 -131 151 -153 30 -7 200 -10 519 -8 465 3
476 3 515 25 22 11 54 35 70 53 l30 31 3 272 c2 150 1 287 -3 304 -3 19 -21
48 -41 67 -67 65 -73 66 -610 66 l-482 0 -53 -28z m861 -382 l0 -200 -315 0
-315 0 0 200 0 200 315 0 315 0 0 -200z m-3530 -1230 l0 -200 -315 0 -315 0 0
200 0 200 315 0 315 0 0 -200z m3530 0 l0 -200 -315 0 -315 0 0 200 0 200 315
0 315 0 0 -200z m0 -1230 l0 -200 -315 0 -315 0 0 200 0 200 315 0 315 0 0
-200z"/>
</g>
</svg>
